<svg width="263" height="90" viewBox="0 0 263 90" fill="none" xmlns="http://www.w3.org/2000/svg">
<path fill-rule="evenodd" clip-rule="evenodd" d="M45 90C69.8528 90 90 69.8528 90 45C90 20.1472 69.8528 0 45 0C20.1472 0 0 20.1472 0 45C0 69.8528 20.1472 90 45 90ZM54.848 48.656L56.96 41.232H62.08C63.1467 41.232 63.9574 40.912 64.512 40.272C65.1094 39.5894 65.408 38.6507 65.408 37.456C65.408 35.1093 64.2987 33.936 62.08 33.936H59.136L60.224 30.096C60.3521 29.712 60.416 29.328 60.416 28.944C60.416 28.048 60.0747 27.344 59.392 26.832C58.752 26.2773 57.9413 26 56.96 26C55.9786 26 55.04 26.32 54.144 26.96C53.2906 27.5573 52.6934 28.4747 52.3521 29.712L51.136 33.936H43.6479L44.736 30.096C44.864 29.712 44.928 29.328 44.928 28.944C44.928 28.048 44.5867 27.344 43.9041 26.832C43.264 26.2773 42.4534 26 41.472 26C40.4907 26 39.552 26.32 38.656 26.96C37.8026 27.5573 37.2053 28.4747 36.864 29.712L35.6479 33.936H29.952C28.8854 33.936 28.0533 34.2347 27.4561 34.832C26.8586 35.4293 26.5601 36.304 26.5601 37.456C26.5601 38.6507 26.8586 39.5894 27.4561 40.272C28.0533 40.912 28.8854 41.232 29.952 41.232H33.536L31.36 48.656H27.392C26.3253 48.656 25.4933 48.9547 24.896 49.552C24.2987 50.1494 24 51.024 24 52.176C24 53.3707 24.2987 54.3093 24.896 54.992C25.4933 55.632 26.3253 55.952 27.392 55.952H29.248L28.288 59.216C28.16 59.728 28.0959 60.1973 28.0959 60.624C28.0959 61.648 28.416 62.4587 29.056 63.056C29.696 63.6107 30.464 63.888 31.36 63.888C32.3413 63.888 33.2587 63.568 34.1121 62.928C35.0081 62.2454 35.6479 61.2853 36.032 60.048L37.248 55.952H44.736L43.776 59.216C43.6479 59.728 43.584 60.1973 43.584 60.624C43.584 61.648 43.9041 62.4587 44.5439 63.056C45.184 63.6107 45.952 63.888 46.848 63.888C47.8293 63.888 48.7467 63.568 49.6 62.928C50.496 62.2454 51.136 61.2853 51.52 60.048L52.736 55.952H59.52C60.5867 55.952 61.3973 55.632 61.952 54.992C62.5493 54.3093 62.848 53.3707 62.848 52.176C62.848 49.8293 61.7386 48.656 59.52 48.656H54.848ZM41.472 41.232H49.024L46.848 48.656H39.36L41.472 41.232Z" fill="#13A822"/>
<path d="M113.4 62V33.6H102.2V27H132.7V33.6H121.5V62H113.4ZM151.641 62V56.75L151.141 55.6V46.2C151.141 44.5333 150.624 43.2333 149.591 42.3C148.591 41.3667 147.041 40.9 144.941 40.9C143.508 40.9 142.091 41.1333 140.691 41.6C139.324 42.0333 138.158 42.6333 137.191 43.4L134.391 37.95C135.858 36.9167 137.624 36.1167 139.691 35.55C141.758 34.9833 143.858 34.7 145.991 34.7C150.091 34.7 153.274 35.6667 155.541 37.6C157.808 39.5333 158.941 42.55 158.941 46.65V62H151.641ZM143.441 62.4C141.341 62.4 139.541 62.05 138.041 61.35C136.541 60.6167 135.391 59.6333 134.591 58.4C133.791 57.1667 133.391 55.7833 133.391 54.25C133.391 52.65 133.774 51.25 134.541 50.05C135.341 48.85 136.591 47.9167 138.291 47.25C139.991 46.55 142.208 46.2 144.941 46.2H152.091V50.75H145.791C143.958 50.75 142.691 51.05 141.991 51.65C141.324 52.25 140.991 53 140.991 53.9C140.991 54.9 141.374 55.7 142.141 56.3C142.941 56.8667 144.024 57.15 145.391 57.15C146.691 57.15 147.858 56.85 148.891 56.25C149.924 55.6167 150.674 54.7 151.141 53.5L152.341 57.1C151.774 58.8333 150.741 60.15 149.241 61.05C147.741 61.95 145.808 62.4 143.441 62.4ZM178.846 72.1C176.312 72.1 173.862 71.7833 171.496 71.15C169.162 70.55 167.212 69.6333 165.646 68.4L168.746 62.8C169.879 63.7333 171.312 64.4667 173.046 65C174.812 65.5667 176.546 65.85 178.246 65.85C181.012 65.85 183.012 65.2333 184.246 64C185.512 62.7667 186.146 60.9333 186.146 58.5V54.45L186.646 47.7L186.546 40.9V35.1H193.946V57.5C193.946 62.5 192.646 66.1833 190.046 68.55C187.446 70.9167 183.712 72.1 178.846 72.1ZM177.646 60.7C175.146 60.7 172.879 60.1667 170.846 59.1C168.846 58 167.229 56.4833 165.996 54.55C164.796 52.5833 164.196 50.3 164.196 47.7C164.196 45.0667 164.796 42.7833 165.996 40.85C167.229 38.8833 168.846 37.3667 170.846 36.3C172.879 35.2333 175.146 34.7 177.646 34.7C179.912 34.7 181.912 35.1667 183.646 36.1C185.379 37 186.729 38.4167 187.696 40.35C188.662 42.25 189.146 44.7 189.146 47.7C189.146 50.6667 188.662 53.1167 187.696 55.05C186.729 56.95 185.379 58.3667 183.646 59.3C181.912 60.2333 179.912 60.7 177.646 60.7ZM179.196 54.3C180.562 54.3 181.779 54.0333 182.846 53.5C183.912 52.9333 184.746 52.15 185.346 51.15C185.946 50.15 186.246 49 186.246 47.7C186.246 46.3667 185.946 45.2167 185.346 44.25C184.746 43.25 183.912 42.4833 182.846 41.95C181.779 41.3833 180.562 41.1 179.196 41.1C177.829 41.1 176.612 41.3833 175.546 41.95C174.479 42.4833 173.629 43.25 172.996 44.25C172.396 45.2167 172.096 46.3667 172.096 47.7C172.096 49 172.396 50.15 172.996 51.15C173.629 52.15 174.479 52.9333 175.546 53.5C176.612 54.0333 177.829 54.3 179.196 54.3ZM201.205 62V35.1H209.005V62H201.205ZM205.105 31.35C203.672 31.35 202.505 30.9333 201.605 30.1C200.705 29.2667 200.255 28.2333 200.255 27C200.255 25.7667 200.705 24.7333 201.605 23.9C202.505 23.0667 203.672 22.65 205.105 22.65C206.539 22.65 207.705 23.05 208.605 23.85C209.505 24.6167 209.955 25.6167 209.955 26.85C209.955 28.15 209.505 29.2333 208.605 30.1C207.739 30.9333 206.572 31.35 205.105 31.35ZM217.195 62V34.5C217.195 31.4667 218.095 29.05 219.895 27.25C221.695 25.4167 224.261 24.5 227.595 24.5C228.728 24.5 229.811 24.6167 230.845 24.85C231.911 25.0833 232.811 25.45 233.545 25.95L231.495 31.6C231.061 31.3 230.578 31.0667 230.045 30.9C229.511 30.7333 228.945 30.65 228.345 30.65C227.211 30.65 226.328 30.9833 225.695 31.65C225.095 32.2833 224.795 33.25 224.795 34.55V37.05L224.995 40.4V62H217.195ZM213.045 41.7V35.7H231.695V41.7H213.045ZM239.469 72.1C238.069 72.1 236.685 71.8833 235.319 71.45C233.952 71.0167 232.835 70.4167 231.969 69.65L234.819 64.1C235.419 64.6333 236.102 65.05 236.869 65.35C237.669 65.65 238.452 65.8 239.219 65.8C240.319 65.8 241.185 65.5333 241.819 65C242.485 64.5 243.085 63.65 243.619 62.45L245.019 59.15L245.619 58.3L255.269 35.1H262.769L250.619 63.65C249.752 65.8167 248.752 67.5167 247.619 68.75C246.519 69.9833 245.285 70.85 243.919 71.35C242.585 71.85 241.102 72.1 239.469 72.1ZM244.069 63.05L232.069 35.1H240.119L249.419 57.6L244.069 63.05Z" fill="#13A822"/>
</svg>
